<svg xmlns="http://www.w3.org/2000/svg" viewBox="0 0 1200 500"><defs><linearGradient id="b" x1="0" y1="0" x2="1" y2="1"><stop stop-color="#e8f3f8"/><stop offset="1" stop-color="#e8eef5"/></linearGradient><radialGradient id="g"><stop stop-color="#69bdcf"/><stop offset=".65" stop-color="#2d7897"/><stop offset="1" stop-color="#173f59"/></radialGradient></defs><rect width="1200" height="500" fill="url(#b)"/><rect x="145" y="175" width="190" height="205" fill="#fff" stroke="#c4dce3" stroke-width="5"/><rect x="345" y="175" width="190" height="205" fill="#f8fbfc" stroke="#c4dce3" stroke-width="5"/><path d="M175 215h130M175 250h110M175 285h120M375 215h130M375 250h110M375 285h125" stroke="#78aebb" stroke-width="9" stroke-linecap="round"/><circle cx="850" cy="250" r="130" fill="url(#g)"/><ellipse cx="850" cy="250" rx="130" ry="48" fill="none" stroke="#b8e0e7" stroke-width="4"/><ellipse cx="850" cy="250" rx="62" ry="130" fill="none" stroke="#b8e0e7" stroke-width="4"/><path d="M735 235h230M750 290h200" stroke="#b8e0e7" stroke-width="4" opacity=".6"/><path d="M540 350c100-25 140-75 190-120" fill="none" stroke="#d1af63" stroke-width="5" stroke-dasharray="10 10"/><circle cx="1015" cy="150" r="10" fill="#d6b667"/></svg>