<svg xmlns="http://www.w3.org/2000/svg" viewBox="0 0 800 500"><defs><linearGradient id="g" x2="1" y2="1"><stop stop-color="#071a2d"/><stop offset=".48" stop-color="#1b4562"/><stop offset="1" stop-color="#0b626c"/></linearGradient><linearGradient id="a" x2="1" y2="1"><stop stop-color="#58e3e5"/><stop offset="1" stop-color="#dfbd66"/></linearGradient></defs><rect width="800" height="500" fill="url(#g)"/><g opacity=".14" stroke="#76e8e9"><path d="M90 105h620M90 185h620M90 265h620M90 345h620"/><path d="M165 65v380M285 65v380M405 65v380M525 65v380M645 65v380"/></g><g><path d="M130 145h175c48 0 78 25 78 67v190c0-36-30-59-78-59H130z" fill="#f7fcfd"/><path d="M670 145H495c-48 0-78 25-78 67v190c0-36 30-59 78-59h175z" fill="#e8f4f6"/><path d="M417 212v190" stroke="#91adb7" stroke-width="5"/><path d="M170 205h130M170 242h100M170 279h115M505 205h125M505 242h96M505 279h112" stroke="#7899a5" stroke-width="10" stroke-linecap="round"/><circle cx="400" cy="125" r="31" fill="#0a3147" stroke="url(#a)" stroke-width="7"/><path d="M385 125h30M400 110v30" stroke="#fff" stroke-width="3"/></g><g fill="#dfbd66"><circle cx="90" cy="95" r="4"/><circle cx="710" cy="405" r="4"/><circle cx="705" cy="105" r="4"/></g></svg>