<svg xmlns="http://www.w3.org/2000/svg" viewBox="0 0 800 500"><defs><linearGradient id="g" x2="1" y2="1"><stop stop-color="#071a2d"/><stop offset=".5" stop-color="#194d69"/><stop offset="1" stop-color="#0b7071"/></linearGradient><linearGradient id="a" x2="1" y2="1"><stop stop-color="#f1d27c"/><stop offset="1" stop-color="#55e1e3"/></linearGradient></defs><rect width="800" height="500" fill="url(#g)"/><path d="M55 410C180 330 250 360 350 285S540 185 750 110M80 445C205 365 280 405 375 325S555 225 770 150" fill="none" stroke="#77e8e9" stroke-opacity=".2" stroke-width="2"/><g><path d="M150 370L310 220 430 300 565 145 680 370z" fill="#f7fcfd" fill-opacity=".97"/><path d="M150 370L310 220 430 300 565 145" fill="none" stroke="url(#a)" stroke-width="13" stroke-linecap="round" stroke-linejoin="round"/><circle cx="310" cy="220" r="11" fill="#fff"/><circle cx="430" cy="300" r="11" fill="#fff"/><circle cx="565" cy="145" r="11" fill="#fff"/><path d="M565 115v-38M546 96h38" stroke="#dfbd66" stroke-width="7" stroke-linecap="round"/></g><circle cx="125" cy="110" r="43" fill="none" stroke="#5de3e5" stroke-opacity=".5"/><path d="M100 110h50M125 85v50" stroke="#5de3e5" stroke-opacity=".35" stroke-width="2"/></svg>