<svg xmlns="http://www.w3.org/2000/svg" viewBox="0 0 800 500"><defs><linearGradient id="bg" x1="0" y1="0" x2="1" y2="1"><stop stop-color="#e9f8f6"/><stop offset="1" stop-color="#d9edf0"/></linearGradient><linearGradient id="screen" x1="0" y1="0" x2="1" y2="1"><stop stop-color="#176f7a"/><stop offset="1" stop-color="#53b6b1"/></linearGradient><filter id="s"><feDropShadow dx="0" dy="18" stdDeviation="18" flood-opacity=".15"/></filter></defs><rect width="800" height="500" rx="30" fill="url(#bg)"/><circle cx="670" cy="100" r="125" fill="#fff" opacity=".5"/><g filter="url(#s)"><rect x="365" y="95" width="285" height="215" rx="22" fill="#fff"/><rect x="392" y="128" width="231" height="132" rx="12" fill="url(#screen)"/><path d="M420 226l48-40 32 22 50-55 50 45" fill="none" stroke="#fff" stroke-width="8" stroke-linecap="round" stroke-linejoin="round" opacity=".8"/><circle cx="445" cy="177" r="13" fill="#d6ad55"/><rect x="465" y="278" width="85" height="9" rx="4.5" fill="#c6d6dc"/><path d="M410 310h200l28 55H382z" fill="#b8cbd1"/></g><g transform="translate(130 125)"><circle cx="95" cy="72" r="55" fill="#173847"/><circle cx="95" cy="58" r="28" fill="#d7b8a0"/><path d="M45 155c10-45 37-65 50-65s40 20 50 65" fill="#2f8490"/><path d="M75 42c5-28 50-30 58 5-18-10-39-9-58-5z" fill="#102d3b"/><path d="M145 72c60-5 110 12 155 55" fill="none" stroke="#d6ad55" stroke-width="3" stroke-dasharray="8 9"/><circle cx="300" cy="128" r="7" fill="#d6ad55"/></g></svg>