<svg xmlns="http://www.w3.org/2000/svg" viewBox="0 0 800 500"><defs><linearGradient id="g" x2="1" y2="1"><stop stop-color="#07182d"/><stop offset=".52" stop-color="#214b70"/><stop offset="1" stop-color="#0c7374"/></linearGradient><linearGradient id="a" x2="1" y2="1"><stop stop-color="#61e6e5"/><stop offset="1" stop-color="#e4c06a"/></linearGradient><filter id="s"><feDropShadow dx="0" dy="25" stdDeviation="24" flood-opacity=".3"/></filter></defs><rect width="800" height="500" fill="url(#g)"/><g fill="none" stroke="#72e7e9" stroke-opacity=".2"><path d="M80 390L245 245 360 310 530 130 720 215"/><circle cx="245" cy="245" r="7"/><circle cx="360" cy="310" r="7"/><circle cx="530" cy="130" r="7"/></g><g filter="url(#s)"><circle cx="400" cy="250" r="125" fill="#f7fcfd"/><path d="M400 138c-58 0-101 45-101 98 0 48 32 72 57 95 13 12 19 25 19 39h50c0-14 6-27 19-39 25-23 57-47 57-95 0-53-43-98-101-98z" fill="#f7fcfd"/><path d="M365 365h70M372 389h56" stroke="#8ca9b2" stroke-width="9" stroke-linecap="round"/><path d="M400 164v95M358 216l42 43 42-43" fill="none" stroke="url(#a)" stroke-width="11" stroke-linecap="round" stroke-linejoin="round"/><circle cx="400" cy="136" r="8" fill="#d9b45d"/></g><circle cx="125" cy="115" r="48" fill="none" stroke="#63e4e6" stroke-opacity=".45"/><path d="M95 115h60M125 85v60" stroke="#63e4e6" stroke-opacity=".35" stroke-width="2"/></svg>