<svg xmlns="http://www.w3.org/2000/svg" viewBox="0 0 1200 500"><defs><linearGradient id="bg" x1="0" y1="0" x2="1" y2="1"><stop stop-color="#f1ecfa"/><stop offset="1" stop-color="#e5e9f7"/></linearGradient><radialGradient id="glow"><stop stop-color="#b987e6"/><stop offset=".45" stop-color="#8253ae"/><stop offset="1" stop-color="#56367b"/></radialGradient></defs><rect width="1200" height="500" fill="url(#bg)"/><path d="M0 410H1200" stroke="#c9c1da" stroke-width="3"/><g stroke="#7b56a5" stroke-width="3" opacity=".35"><path d="M760 115L950 185 820 300 650 220z"/><path d="M760 115l60 185M950 185L650 220M820 300L760 115"/></g><circle cx="760" cy="115" r="12" fill="#7d50a9"/><circle cx="950" cy="185" r="12" fill="#7d50a9"/><circle cx="820" cy="300" r="12" fill="#7d50a9"/><circle cx="650" cy="220" r="12" fill="#7d50a9"/><circle cx="450" cy="245" r="105" fill="url(#glow)" opacity=".94"/><path d="M390 300h120" stroke="#fff" stroke-width="12" stroke-linecap="round"/><path d="M430 300v35h40v-35" fill="#fff"/><path d="M382 275c0-55 38-95 68-95s68 40 68 95c0 24-12 39-29 55H411c-17-16-29-31-29-55Z" fill="#fff" opacity=".96"/><path d="M420 240h60M410 265h80" stroke="#9b69c5" stroke-width="9" stroke-linecap="round"/><circle cx="450" cy="245" r="150" fill="none" stroke="#b88cda" stroke-width="2" stroke-dasharray="8 12"/></svg>